<?xml version="1.0" encoding="UTF-8"?>
<svg xmlns="http://www.w3.org/2000/svg" version="1.1" viewBox="0 0 44 44">
  <defs>
    <style>
      .cls-1 {
        fill: none;
        stroke: #000;
        stroke-miterlimit: 10;
      }
    </style>
  </defs>
  <!-- Generator: Adobe Illustrator 28.6.0, SVG Export Plug-In . SVG Version: 1.2.0 Build 709)  -->
  <g>
    <g id="Capa_1">
      <g>
        <path d="M1.9,44.7v-23.3c0-3.4.8-6.4,2.5-9.2,1.6-2.7,4-4.9,7-6.6,3-1.6,6.6-2.5,10.8-2.5s7.8.8,10.8,2.5c3,1.6,5.3,3.8,6.8,6.6,1.6,2.7,2.4,5.8,2.4,9.2v23.3h-12.3v-23c0-1.4-1.5-2.6-2.6-3.6s-1.3-1.1-2.4-2.1-.9-.9-1.3-1.3-.5-.5-.8-.7-.5-.1-.8-.1c-.7,0-1.6.9-2.6,1.8s-2.6,2.4-3.1,2.9c-1,1-2.3,1.6-2.3,3v23H1.9Z"/>
        <path class="cls-1" d="M13.8,21.6c0-.5.4-1.1.8-1.5l6.4-5.7c.7-.6,1.6-.6,2.3,0l6.1,5.7c.4.3.8.9.8,1.5"/>
      </g>
    </g>
  </g>
</svg>